# xmcd CD database file
#
# Track frame offsets:
#	150
#	20553
#	40063
#	60108
#	82011
#	107697
#
# Disc length: 1856 seconds
#
# Revision: 0
# Processed by: cddbd v1.5.1PL2 Copyright (c) Steve Scherf et al.
# Submitted via: CDex 1.51
#
DISCID=3e073e06
DTITLE=Twilightning - Bedlam
DYEAR=2006
DGENRE=Heavy Metal
TTITLE0=Space Of Disgrace
TTITLE1=Rolling Heads
TTITLE2=Sex Jail
TTITLE3=Plague Overload
TTITLE4=Train To Bedlam
TTITLE5=エンハンスト映像データ
EXTD=YEAR: 2006
EXTT0=
EXTT1=
EXTT2=
EXTT3=
EXTT4=
EXTT5=
PLAYORDER=
